<?xml version="1.0" encoding="UTF-8"?>
<svg width="283px" height="205px" viewBox="0 0 283 205" version="1.1" xmlns="http://www.w3.org/2000/svg" xmlns:xlink="http://www.w3.org/1999/xlink">
    <!-- Generator: Sketch 46.2 (44496) - http://www.bohemiancoding.com/sketch -->
    <title>logo</title>
    <desc>Created with Sketch.</desc>
    <defs></defs>
    <g id="Page-1" stroke="none" stroke-width="1" fill="none" fill-rule="evenodd">
        <g id="logo" fill="#000000">
            <path d="M14,100 C14.1450158,94.3609876 15.3595052,89.2100439 17.6435045,84.5470144 C19.854996,79.3056247 25.0754876,73.7570643 33.305136,67.9011668 C40.4471656,62.8043671 45.0694759,59.1535228 47.1722054,56.9485244 C50.3988077,53.5145104 52.0120846,49.7552252 52.0120846,45.6705559 C52.0120846,42.3449845 51.0876225,39.5797411 49.2386707,37.3747426 C47.3897189,35.1697442 44.7432196,34.0672615 41.2990937,34.0672615 C36.5860792,34.0672615 33.377652,35.8203897 31.673716,39.3266987 C30.6948592,41.3509596 30.1148045,44.5680402 29.9335347,48.9780371 L14.8700906,48.9780371 C15.1238683,42.2907467 16.3383577,36.8867742 18.5135952,32.7659574 C22.6465463,24.9219466 29.9878627,21 40.5377644,21 C48.8761746,21 55.5105494,23.3043695 60.4410876,27.9131778 C65.3716259,32.521986 67.836858,38.6217877 67.836858,46.212766 C67.836858,52.0325159 66.0966941,57.2015331 62.6163142,61.7199725 C60.3323149,64.7202163 56.5800865,68.0638114 51.3595166,71.7508579 L45.1601208,76.1427591 C41.2809474,78.8899703 38.6253848,80.8780538 37.1933535,82.1070693 C35.7613221,83.3360848 34.5558961,84.7638903 33.5770393,86.3905285 L68,86.3905285 L68,100 L14,100 Z" id="2DO"></path>
            <g id="Group" transform="translate(67.000000, 59.000000)">
                <path d="M43.1549079,3.69230769 C49.3619965,3.80170995 54.5269417,4.67691487 58.6498984,6.31794872 C65.6725169,9.10770626 71.3584873,14.222185 75.7079801,21.6615385 C79.1966358,27.6786626 81.5752289,34.1879992 82.843831,41.1897436 C84.1124331,48.191488 84.7467246,54.8649255 84.7467246,61.2102564 C84.7467246,77.2923881 82.0736389,90.9127647 76.7273874,102.071795 C69.4782327,117.114605 58.2875181,124.635897 43.1549079,124.635897 L0,124.635897 L0,3.69230769 L43.1549079,3.69230769 Z M20.320185,24.6974359 L20.320185,103.630769 L39.6209627,103.630769 C49.4979358,103.630769 56.3845294,97.7504862 60.28095,85.9897436 C62.4103892,79.5350105 63.4750928,71.8496172 63.4750928,62.9333333 C63.4750928,50.6255795 61.8780374,41.1761013 58.6838786,34.5846154 C55.4897199,27.9931294 49.1354781,24.6974359 39.6209627,24.6974359 L20.320185,24.6974359 Z M194,64 C194,85.7163479 188.948321,102.345241 178.844812,113.887179 C171.278507,123.295774 160.336978,128 146.019898,128 C131.702817,128 120.761289,123.295774 113.194984,113.887179 C103.046167,102.345241 97.9718349,85.7163479 97.9718349,64 C97.9718349,41.8460431 103.046167,25.2171495 113.194984,14.1128205 C120.761289,4.70422646 131.702817,0 146.019898,0 C160.336978,0 171.278507,4.70422646 178.844812,14.1128205 C188.948321,25.2171495 194,41.8460431 194,64 Z M146.019898,106.584615 C154.311118,106.584615 160.891893,102.892345 165.762419,95.5076923 C170.632944,88.12304 173.068171,77.6205809 173.068171,64 C173.068171,50.4341202 170.632944,39.9453362 165.762419,32.5333333 C160.891893,25.1213305 154.311118,21.4153846 146.019898,21.4153846 C137.728677,21.4153846 131.113923,25.1076554 126.175436,32.4923077 C121.23695,39.87696 118.767743,50.3794191 118.767743,64 C118.767743,77.6205809 121.23695,88.12304 126.175436,95.5076923 C131.113923,102.892345 137.728677,106.584615 146.019898,106.584615 Z" id="Combined-Shape"></path>
            </g>
        </g>
    </g>
</svg>